<svg xmlns="http://www.w3.org/2000/svg" viewBox="0 0 600 600"><title>Downtown street map, data © OpenStreetMap contributors</title><g fill="none" stroke="#6f7a87" stroke-width="0.9" stroke-opacity="0.55" stroke-linecap="round"><polyline points="209.0,158.4 208.8,155.3 208.4,146.6 208.2,134.1 208.1,125.1 208.1,122.1"/><polyline points="170.8,291.5 170.8,287.8 170.7,277.2 170.7,267.4 170.7,263.7 170.6,260.1 170.6,253.7 170.6,250.8 170.6,247.6"/><polyline points="243.4,635.4 240.9,635.1 237.8,634.1 234.9,632.9 231.8,631.3 227.7,628.9 224.5,626.5 220.4,622.9 218.3,621.1 215.9,619.5 212.8,617.9 210.3,616.1 207.2,614.6 203.9,614.1 199.7,613.5 195.9,612.5 193.5,611.2 191.7,609.5 188.8,606.6 184.9,602.4 183.4,601.3 181.4,600.6 177.7,599.7 174.5,598.2 172.3,597.0 170.4,595.4 168.6,593.2 166.7,590.5 164.6,588.5 162.7,585.3 160.3,582.4 158.8,581.3 156.7,580.1 154.0,578.6 151.4,576.8 148.3,574.6 147.2,573.2"/><polyline points="135.8,551.1 140.4,548.3 143.4,546.9 145.1,546.1 147.4,545.6 149.0,545.4"/><polyline points="190.5,510.5 191.2,506.6 191.1,487.2 190.9,468.9 190.9,464.7"/><polyline points="190.7,291.4 190.7,295.0 190.7,305.3 190.6,311.3 190.6,312.1"/><polyline points="8.7,165.5 8.6,160.6 8.6,155.5 8.6,152.3 8.5,140.7 8.4,125.5"/><polyline points="7.9,264.6 8.0,268.9 8.0,281.2 8.1,288.1 8.1,289.3"/><polyline points="8.1,295.6 8.0,297.6 8.0,298.4 8.1,307.1 8.1,309.3 8.1,315.8 8.1,317.0 8.1,319.3"/><polyline points="498.3,289.6 497.9,292.9 497.0,299.5 495.1,313.3 494.8,317.1 494.7,319.3 494.6,321.0 493.7,339.9 493.4,346.4 492.9,369.7 492.9,372.4 493.1,374.4 493.5,376.4 494.2,378.2 495.3,380.0 498.5,384.8 503.6,392.3 522.9,421.0 528.1,428.8 535.2,439.5 537.0,442.3 537.7,443.5 539.3,445.8"/><polyline points="291.9,23.6 291.9,13.9 291.8,2.3 291.7,-10.8 291.6,-25.8"/><polyline points="305.1,54.1 304.8,28.5"/><polyline points="292.2,90.1 292.4,78.2 292.6,59.0"/><polyline points="122.4,90.3 122.1,48.3"/><polyline points="447.2,171.5 443.7,171.5 432.0,171.5 407.7,171.7 404.3,171.7 400.3,171.7 385.2,171.8 382.5,171.8 364.6,171.9 361.1,171.9"/><polyline points="185.2,161.0 181.8,161.0 157.0,161.1 155.5,161.2"/><polyline points="470.7,148.8 470.7,130.0 470.7,125.6"/><polyline points="199.4,237.7 196.0,239.4 194.9,240.0 190.3,242.2 182.1,246.3 176.8,247.5 172.7,247.6 170.6,247.6 168.5,247.6 161.3,247.7 148.3,247.7 145.4,247.7"/><polyline points="482.8,216.7 487.7,216.7 510.7,216.6 514.6,216.6"/><polyline points="95.4,592.8 92.1,592.8 90.2,592.8 35.9,592.9 8.8,593.0 -15.0,593.0 -18.6,593.0"/><polyline points="152.0,598.2 108.2,598.3 100.4,598.3 95.5,598.4"/><polyline points="402.5,-141.4 402.6,-126.8 402.7,-112.9 402.8,-98.0 402.8,-84.4 402.9,-69.6 403.0,-57.6 403.0,-55.4 403.1,-40.8 403.2,-26.4 403.3,-12.1 403.3,-0.2 403.3,2.0 403.3,4.3 403.4,16.6 403.5,28.6 403.5,30.5 403.6,45.3 403.6,57.0 403.6,59.5 403.7,73.9 403.8,86.2 403.8,89.0"/><polyline points="405.2,345.5 405.2,348.9 405.3,360.8 405.4,378.6 405.4,382.8 405.5,389.1 405.5,395.8 405.5,398.0 405.5,400.9 405.6,407.8 405.6,414.7 406.1,418.6 406.5,422.3 406.6,441.4"/><polyline points="526.8,29.8 526.8,27.9 526.7,15.9 526.6,3.5 526.6,1.3 526.6,-0.9 526.6,-12.7 526.5,-27.1"/><polyline points="275.8,290.9 275.3,287.3 275.2,276.6 275.1,266.6 275.1,263.1 275.1,259.4 274.9,221.8 274.9,217.9"/><polyline points="264.0,89.9 263.8,54.6 263.6,28.5 263.5,2.3 263.3,-25.6"/><polyline points="275.6,346.2 275.6,360.5 275.7,370.5 275.7,374.2 275.7,377.9 275.8,388.5 275.8,397.0 276.0,415.7 276.0,419.3 276.0,423.2 276.0,433.2 276.1,442.0"/><polyline points="514.6,216.6 515.8,212.2 518.1,204.2 529.2,165.6 534.1,148.2 534.3,147.8 543.7,121.8 549.3,106.1 556.5,90.7 556.6,88.2"/><polyline points="322.6,217.3 326.2,217.3 333.4,217.2 337.7,217.2 342.0,217.1 349.3,217.0"/><polyline points="65.8,219.2 68.6,219.2 79.3,219.1 90.2,219.1 94.9,219.1"/><polyline points="362.0,345.7 358.8,345.8 343.2,345.9 338.9,345.9 336.1,345.9 327.1,345.9 323.3,346.0"/><polyline points="449.9,486.2 445.8,486.1 443.0,486.1 442.7,486.1 439.2,486.1 436.6,486.1 432.6,486.1 429.8,486.1 426.2,486.1 416.5,486.2 410.1,486.2 407.0,486.2"/><polyline points="406.6,441.4 409.8,441.3 428.8,441.1 445.6,441.0 448.8,441.0"/><polyline points="446.3,1.7 485.9,1.5 488.8,1.5 491.6,1.5 523.9,1.3 526.6,1.3 529.6,1.3 562.7,1.1 565.8,1.1 569.3,1.1 572.6,1.0 578.4,1.0 595.4,0.9 608.1,0.8 611.0,0.8"/><polyline points="446.4,30.3 486.2,30.0 489.0,30.0 491.7,30.0 524.1,29.8 526.8,29.8 529.8,29.8 545.7,29.7 548.5,29.7 552.0,29.7 558.3,29.6 570.6,29.6 581.1,29.5 610.7,29.4"/><polyline points="274.9,217.9 271.2,217.9 267.1,217.8 258.0,217.8 254.8,218.0 254.0,218.4 250.7,220.4 247.8,222.7 245.0,225.0 239.4,229.0 235.4,231.9 235.1,232.1 230.6,234.9 227.0,237.0 226.8,237.1 223.9,238.3 220.7,239.5 217.3,240.3 213.7,240.8 210.7,240.9 209.8,240.8 207.8,240.7 205.9,240.5 203.9,239.9 201.8,239.0 199.4,237.7 197.9,236.8 196.4,235.7 194.6,234.1 192.8,233.2 191.1,229.3 189.1,225.5 186.9,221.1 185.7,218.6 180.7,204.5 176.9,190.1 176.6,187.6 176.3,184.4 176.5,180.1 177.1,175.8 179.7,169.0 182.9,164.3 185.2,161.0"/><polyline points="185.2,161.0 187.1,161.0 191.7,160.9 198.2,159.9 209.0,158.4 212.1,157.9 214.5,157.6 215.8,157.4 219.2,157.1 222.1,156.9 226.9,157.0 232.6,157.5 238.6,159.1 245.4,161.8 249.0,164.2 253.1,164.2 255.1,164.2 256.0,164.2"/><polyline points="125.9,465.1 126.0,469.4 126.1,476.7 126.2,488.4"/><polyline points="490.4,125.4 490.5,124.0 490.5,122.4 490.5,119.3 490.3,100.5 490.3,94.4 490.3,91.4 489.3,88.5"/><polyline points="169.1,146.4 169.2,132.2 169.1,120.9 169.1,118.4"/><polyline points="446.4,30.3 403.5,30.5 360.1,30.7 335.9,30.9 323.7,30.9 321.0,31.0"/><polyline points="172.1,374.8 172.1,378.8 172.2,397.5 172.3,416.4 172.3,419.8"/><polyline points="494.8,317.1 496.8,317.2 497.5,317.3"/><polyline points="235.3,-25.5 235.5,2.5 235.6,28.6 235.7,41.9 235.8,54.7 235.9,72.1 236.0,90.0"/><polyline points="519.1,568.6 540.4,568.1 554.2,567.8 560.8,567.5 580.5,567.4 593.5,567.3 604.1,567.2 606.6,567.2"/><polyline points="447.2,171.5 451.2,171.4 468.0,171.3 471.5,171.3 479.4,171.3 494.5,171.2 497.6,171.2"/><polyline points="235.9,72.1 207.9,72.3"/><polyline points="164.6,588.5 164.9,609.6"/><polyline points="498.3,289.6 495.1,289.6 494.1,289.6 487.8,289.6"/><polyline points="126.7,146.7 126.6,121.2 126.6,118.4"/><polyline points="65.2,124.5 65.3,129.8 65.3,140.2 65.4,158.4 65.5,165.1 65.6,186.9 65.7,205.1 65.7,216.1 65.8,219.2"/><polyline points="35.9,592.9 35.9,595.4 35.9,606.6 35.9,607.5 35.9,613.9 36.0,623.4 36.1,625.2 36.0,626.8 35.9,636.3 35.8,647.7 35.8,649.2 35.8,651.0 35.9,664.2"/><polyline points="51.7,320.0 51.7,322.4 51.7,323.6"/><polyline points="37.8,548.5 37.8,551.1 37.7,567.7 37.7,569.3"/><polyline points="233.0,433.3 229.5,433.3 193.0,433.5 190.0,433.5"/><polyline points="446.6,59.2 403.6,59.5 360.2,59.7 336.0,59.8 326.7,59.9 321.1,59.9"/><polyline points="37.5,218.8 36.9,216.4 37.0,205.3"/><polyline points="446.3,1.7 403.3,2.0 362.7,2.2 359.9,2.8 335.2,3.1 330.9,3.1 324.6,3.1 321.3,2.6"/><polyline points="363.9,560.1 361.3,560.1 344.8,560.0 336.2,560.0 328.3,560.0 324.2,560.0"/><polyline points="150.6,570.0 150.0,570.6 149.5,571.1"/><polyline points="181.0,571.6 163.7,571.5 152.6,570.9 150.6,570.0"/><polyline points="323.7,576.5 321.0,576.5 310.5,576.5 281.0,576.5 278.3,576.5"/><polyline points="95.1,569.1 92.4,569.1 84.5,569.1 37.7,569.3 -7.2,569.8"/><polyline points="477.2,479.3 482.7,479.5 487.4,479.5 502.6,479.4 511.8,479.3 516.0,479.2 517.4,479.0 518.8,478.5 521.1,477.6 521.2,477.6 523.3,476.5 534.4,470.4 536.9,468.7 538.9,467.2 540.4,465.6 541.4,463.9 542.4,461.8 543.3,459.3 543.4,458.2 543.5,456.8 543.3,453.8 542.5,451.4 541.3,448.9 540.0,447.0 539.3,445.8"/><polyline points="184.8,118.4 184.9,121.0 185.0,133.9 185.1,146.4"/><polyline points="179.2,-25.2 179.6,31.8"/><polyline points="184.9,31.7 184.8,47.6 185.0,90.1"/><polyline points="150.8,75.6 151.0,47.7 151.0,32.1"/><polyline points="404.1,149.2 407.7,149.2 419.5,149.1 433.2,149.0 443.6,149.0 447.1,149.0 451.1,148.9 470.7,148.8 490.2,148.7 500.8,148.7 505.2,148.6"/><polyline points="64.7,8.0 76.2,8.0"/><polyline points="446.6,59.2 486.2,59.0 489.1,59.0 491.9,59.0 527.8,58.8 531.0,58.8"/><polyline points="145.1,190.1 147.8,190.1 152.1,190.1 157.4,190.1 174.0,190.1 176.9,190.1"/><polyline points="185.1,146.4 169.1,146.4 168.4,146.4 164.1,146.3 150.6,146.3"/><polyline points="324.2,487.1 307.5,487.1"/><polyline points="275.8,397.0 272.3,397.0 253.9,397.1 248.0,397.1 244.1,397.1 236.7,397.2 232.8,397.2 229.3,397.2 193.3,397.4 189.8,397.4"/><polyline points="146.0,374.9 150.0,374.9 172.1,374.8 185.7,374.7 189.6,374.7 193.2,374.7 203.9,374.6"/><polyline points="189.8,397.4 185.8,397.5 172.2,397.5 159.0,397.6 150.1,397.6 146.2,397.7"/><polyline points="208.0,89.1 207.9,72.3 207.8,54.8 207.8,47.2 207.8,42.0 207.7,29.9 207.6,2.3 207.4,-25.3"/><polyline points="498.3,317.2 508.1,317.1"/><polyline points="592.1,330.2 590.9,330.8 589.9,331.7 589.1,332.9 588.6,334.1 588.4,335.5 588.5,336.9 589.0,338.2 589.7,339.3 590.7,340.3 591.8,341.0 593.2,341.4 594.5,341.5 595.9,341.3 597.1,340.8 598.3,340.0 599.2,339.0 599.8,337.7 600.1,336.4 600.2,335.1 599.9,333.7 599.3,332.5 598.4,331.4 597.4,330.6 596.1,330.0 594.8,329.7 593.4,329.8 592.1,330.2"/><polyline points="592.1,330.2 590.9,326.7 590.0,324.6 589.0,323.6 588.3,322.7 586.1,321.3 583.8,320.3 581.9,320.3 581.1,320.2 578.4,320.8 576.3,322.6 572.6,325.5 569.4,327.8 565.1,329.8 561.3,331.0 559.1,331.9 554.3,332.8 548.2,332.7 545.0,332.3 542.1,331.7 539.7,331.0 534.6,329.2 531.9,327.5 531.7,327.4 529.8,326.1 526.4,323.1"/><polyline points="360.4,89.2 360.4,86.4 360.3,74.1 360.2,59.7 360.2,57.3 360.2,45.5 360.1,30.7 360.1,28.8 360.0,16.8 359.9,4.4 359.9,2.8 359.9,-0.0 359.8,-11.4 359.8,-11.8 359.8,-26.2"/><polyline points="8.8,33.3 8.4,-24.2"/><polyline points="149.0,545.4 149.0,543.5 148.7,532.8 147.5,529.0"/><polyline points="464.5,317.5 468.0,317.6 476.7,317.6 492.6,317.0 494.8,317.1"/><polyline points="556.6,88.2 551.9,88.3 525.1,88.3"/><polyline points="233.3,601.3 232.1,601.4 221.4,601.8 209.9,601.6 181.1,591.4"/><polyline points="324.2,532.2 320.7,532.2 291.0,532.3 280.6,532.3 278.0,532.3"/><polyline points="145.9,346.9 139.2,347.0 134.8,347.0 129.3,347.0 128.5,347.0 124.4,347.1 112.5,347.1 104.0,347.2 98.7,347.2 95.6,347.2"/><polyline points="135.4,544.4 131.1,545.6 129.5,545.8 127.9,545.2 126.7,544.7 124.8,543.7 116.4,539.5 114.1,538.2 111.4,536.4 109.5,534.8 107.5,532.8 106.2,531.4 104.5,530.4 103.4,529.9 103.0,529.6 102.5,529.4 102.2,529.3 99.6,528.3 94.9,527.2"/><polyline points="233.3,510.2 233.3,513.8 233.3,525.7 233.3,526.9 233.3,531.2 233.3,537.2 233.3,540.2 233.3,546.2"/><polyline points="232.1,263.3 232.0,259.5 231.9,248.4 231.9,243.3 231.9,238.1 231.7,237.6 230.6,234.9"/><polyline points="449.6,508.6 449.6,510.8 449.6,524.6 449.6,528.6 449.4,571.3 449.5,575.4"/><polyline points="51.7,323.6 51.7,324.4 51.7,327.7 51.8,333.9 51.8,347.5 51.9,350.0"/><polyline points="556.6,88.2 561.0,88.2 609.0,87.9 624.4,87.8 626.7,87.8 646.8,87.6"/><polyline points="97.4,561.8 95.1,563.4"/><polyline points="95.6,443.3 99.3,443.3 112.0,443.2 118.3,443.2 124.2,443.1 143.0,443.0 146.4,443.0"/><polyline points="181.0,571.6 181.1,591.4"/><polyline points="149.5,571.1 148.3,572.3"/><polyline points="148.3,572.3 147.2,573.2 145.2,573.8 142.4,574.1 117.7,574.3"/><polyline points="316.4,445.3 314.6,443.8 299.9,443.8 292.2,442.7 279.9,442.8 276.1,442.0 240.2,442.3 236.9,442.3 233.0,442.4"/><polyline points="95.3,280.7 90.5,280.8 54.6,280.9 40.4,281.0 8.0,281.2 4.0,281.2 -17.6,281.4 -36.3,281.4 -42.7,281.5 -45.6,281.6 -48.2,281.6"/><polyline points="189.5,346.7 193.0,346.7 215.6,346.6 220.7,346.5 229.0,346.5 232.5,346.5 236.3,346.4 242.3,346.4 245.4,346.4 248.4,346.3 249.8,346.3 255.1,346.3 257.0,346.3 260.5,346.3 264.2,346.3 275.6,346.2"/><polyline points="321.0,54.5 315.5,54.4 305.1,54.1 302.5,54.5 299.2,55.5 296.3,57.0 292.6,59.0 286.7,59.5 281.3,58.7 279.2,58.1 277.4,57.5 272.7,55.1 268.6,54.5 263.8,54.6 250.0,54.7 235.8,54.7 207.8,54.8"/><polyline points="321.0,28.5 309.9,28.5 306.3,28.5 304.8,28.5 301.7,28.4 298.8,27.3 296.2,25.9 291.9,23.6 288.0,22.9 282.6,23.2 278.2,24.9 275.5,27.0 273.5,28.0 271.0,28.4 263.6,28.5 249.9,28.5 235.6,28.6 222.0,28.8 212.7,29.0 209.9,29.4 207.7,29.9 204.6,31.1 201.6,31.6 194.1,31.6 184.9,31.7 179.6,31.8 165.3,31.9 151.0,32.1"/><polyline points="487.8,289.6 491.7,290.9 493.3,292.1 494.2,292.7 495.2,294.4 496.2,296.5 497.0,299.5"/><polyline points="499.7,282.6 497.7,285.0 495.7,286.2 495.2,286.6 493.6,287.4 492.1,288.2 487.8,289.6"/><polyline points="149.9,148.0 145.6,146.8 137.7,146.6 126.7,146.7 116.3,146.7 103.7,146.7 94.5,146.7"/><polyline points="287.4,169.6 287.7,167.6 287.7,166.6 287.7,165.3 287.7,165.1 287.5,162.8 287.1,159.8 286.8,158.3 286.1,154.5 285.3,151.4 285.2,150.9 283.1,144.9 280.8,139.5 278.1,133.3 277.2,131.1 276.9,130.3 275.7,126.9"/><polyline points="94.6,165.0 79.1,165.0 65.5,165.1"/><polyline points="65.5,165.1 48.6,165.2 39.9,165.3 27.1,165.3 8.7,165.5"/><polyline points="133.4,161.3 116.6,161.4 99.7,161.5 94.6,161.6"/><polyline points="145.7,161.2 142.8,161.2 133.4,161.3"/><polyline points="155.5,161.2 150.8,161.2 149.3,161.2 145.7,161.2"/><polyline points="185.1,146.4 185.2,159.0 185.2,161.0"/><polyline points="36.1,-24.5 36.2,-13.8 36.2,-8.8 36.2,5.9 35.8,26.4 35.9,33.2"/><polyline points="278.1,545.8 280.8,545.8 289.3,545.8 291.1,545.8 294.0,545.8 306.6,545.8 307.1,545.8 312.6,545.7 316.1,545.7 320.9,545.7 324.2,545.7"/><polyline points="233.3,546.2 237.2,546.2 256.4,546.0 257.0,546.0 271.2,545.9 272.5,545.9 276.1,545.8 278.1,545.8"/><polyline points="278.3,576.5 276.4,576.5 257.2,576.5 236.5,576.5 233.3,576.6"/><polyline points="107.3,574.3 112.4,574.3 117.7,574.3"/><polyline points="117.7,574.3 116.5,572.5 116.1,571.3 115.9,570.4 115.8,568.9 115.8,567.6"/><polyline points="97.4,561.8 98.6,561.8 114.1,561.8"/><polyline points="188.7,464.7 188.7,468.9 188.8,482.5 188.8,487.2 188.9,506.6 190.5,510.5"/><polyline points="149.0,545.4 149.1,546.6 150.6,570.0"/><polyline points="489.3,88.5 489.3,85.5 489.2,73.4 489.1,61.0 489.1,59.0 489.0,44.8 489.0,30.0 488.9,28.1 488.9,16.1 488.8,3.7 488.8,1.5"/><polyline points="286.6,174.7 289.8,174.4 294.7,173.8 304.2,173.0"/><polyline points="304.2,173.0 291.4,171.0 290.6,170.7 287.4,169.6"/><polyline points="274.9,217.9 274.8,214.5 274.8,202.4 274.8,200.1 275.1,198.8 275.9,197.4 276.4,196.4 278.7,192.9 281.9,187.2 282.8,185.5 285.3,179.0 286.1,176.1 286.6,174.7 287.4,169.6"/><polyline points="275.7,126.9 275.2,123.8 275.1,123.1 275.0,109.0 275.0,105.1 275.0,101.8 275.0,96.8 274.9,90.2"/><polyline points="95.8,375.2 98.9,375.2 103.7,375.1 112.4,375.1 124.1,375.1 142.0,375.0 146.0,374.9"/><polyline points="52.0,375.4 55.6,375.4 86.7,375.2 91.3,375.2 95.8,375.2"/><polyline points="322.1,172.6 318.3,172.7 311.7,172.8"/><polyline points="274.9,217.9 278.4,217.8 286.0,217.8 289.9,217.7 294.4,217.7 296.5,217.6 298.4,217.6 301.1,217.6 302.9,217.6 307.7,217.5 318.8,217.4 322.6,217.3"/><polyline points="448.2,345.3 444.9,345.3 438.4,345.4 409.2,345.5 405.2,345.5"/><polyline points="405.1,318.1 405.1,319.2 405.1,321.7 405.2,341.9 405.2,345.5"/><polyline points="404.9,290.2 404.9,293.3 405.0,313.7 405.1,318.1"/><polyline points="323.3,373.9 327.2,373.9 336.6,373.9 340.0,373.9 345.1,373.8 347.3,373.8"/><polyline points="189.5,346.7 185.6,346.7 145.9,346.9"/><polyline points="95.6,347.2 90.9,347.2 65.9,347.4 53.5,347.4 51.8,347.5"/><polyline points="361.1,171.9 357.6,172.0 345.5,172.2 343.2,172.2 341.4,172.3 337.2,172.3 331.1,172.4 325.8,172.5 322.1,172.6"/><polyline points="232.7,374.4 236.5,374.4 245.2,374.4"/><polyline points="7.8,248.7 5.8,248.7 3.8,248.7 -3.2,248.7 -10.6,248.8 -20.9,248.8 -22.3,248.8 -30.8,248.8 -35.1,248.8 -46.1,248.9 -48.4,248.9"/><polyline points="95.1,248.0 90.5,248.0 84.2,248.1 83.7,248.1 79.5,248.1 57.6,248.3 53.2,248.3 39.5,248.5 13.4,248.7 10.9,248.7 7.8,248.7"/><polyline points="94.9,219.1 97.6,219.0 112.8,219.0 118.0,218.9 122.9,218.9 123.5,218.9 143.1,218.8 145.5,218.8"/><polyline points="275.9,318.6 275.9,315.4 275.8,307.0 275.8,305.0 275.8,300.9 275.8,294.8 275.8,290.9"/><polyline points="403.8,89.0 403.8,91.8 403.9,104.1 404.0,123.0 404.0,126.8 404.0,130.4 404.1,138.1 404.1,141.5 404.1,145.3 404.1,149.2 404.2,168.1 404.3,171.7 404.3,175.4 404.3,187.9 404.4,190.5 404.4,194.5 404.5,213.4 404.5,217.2"/><polyline points="404.9,290.2 404.9,286.4 404.8,279.9 404.8,266.0 404.8,262.4"/><polyline points="404.8,262.4 404.7,258.2 404.6,239.9 404.5,220.5 404.5,217.2"/><polyline points="451.3,215.7 447.5,215.6"/><polyline points="233.3,546.2 233.3,548.7 233.3,553.5 233.3,563.0 233.3,564.2 233.3,566.0 233.3,576.6 233.3,598.8 233.3,601.3"/><polyline points="278.1,545.8 278.1,544.2 278.0,540.5 278.0,535.2 278.0,532.3 278.0,531.0 277.8,513.3 277.8,509.8"/><polyline points="514.6,216.6 513.6,220.4 511.9,227.3 506.5,248.4 503.4,262.9 503.2,264.0 500.5,278.2 499.7,282.6"/><polyline points="487.8,289.6 481.5,289.6 474.4,289.8 470.8,289.8 469.5,289.8 466.8,289.9"/><polyline points="499.7,282.6 498.3,289.6"/><polyline points="447.5,218.0 451.3,218.0 478.3,217.9 482.8,216.7"/><polyline points="371.1,216.9 380.9,217.0 400.9,217.1 404.5,217.2"/><polyline points="405.2,345.5 402.1,345.5 365.4,345.7 362.0,345.7"/><polyline points="275.9,318.6 275.4,321.4 275.5,326.6 275.5,332.5 275.6,346.2"/><polyline points="275.6,346.2 294.4,346.1 300.2,346.1 319.6,346.0 323.3,346.0"/><polyline points="151.0,32.1 151.0,19.8 151.3,-25.0"/><polyline points="151.0,32.1 121.9,32.2"/><polyline points="362.3,396.1 358.7,396.1 354.5,396.1 341.0,396.2 337.1,396.2 336.5,396.2 327.3,396.2 323.5,396.3"/><polyline points="497.5,317.3 498.3,317.2"/><polyline points="347.3,373.8 358.6,373.7 362.2,373.7"/><polyline points="275.7,374.2 279.5,374.2 309.7,374.0 319.8,374.0 323.3,373.9"/><polyline points="151.6,582.9 151.7,585.8 151.9,591.7 152.0,596.4 152.0,598.2 152.4,609.8 152.4,622.3"/><polyline points="203.9,374.6 229.1,374.5 232.7,374.4"/><polyline points="190.6,312.1 190.4,315.9 189.3,319.2 189.3,321.9 189.3,322.9 189.4,329.9 189.4,333.0 189.5,343.4 189.5,346.7 189.5,351.0 189.5,354.6 189.6,361.0 189.6,371.2 189.6,374.7 189.7,378.7 189.8,397.4 189.9,416.3 189.9,419.8 189.9,423.7 189.9,432.8 190.0,433.5 190.0,442.8"/><polyline points="256.0,164.2 261.5,164.2 267.3,164.2 272.7,164.2 278.3,165.4 283.4,167.6 284.7,168.2 287.4,169.6"/><polyline points="307.5,487.1 303.7,487.1"/><polyline points="303.7,487.1 296.6,487.1 290.5,487.1"/><polyline points="311.7,172.8 304.2,173.0"/><polyline points="406.6,441.4 406.6,445.1 406.5,450.0 406.4,454.5 406.0,460.1 405.9,461.2 405.9,463.8 406.0,467.5 406.1,471.0 406.3,472.6 406.4,472.7 406.8,475.8 407.0,486.2 406.9,490.0 406.7,505.3 406.7,507.0"/><polyline points="406.6,441.4 402.9,441.3 370.1,441.5 366.4,441.5 362.6,441.6 359.1,441.6 327.7,441.7 323.7,441.8"/><polyline points="-134.0,206.2 -131.6,206.2 -125.0,206.2 -120.2,206.1 -110.6,206.2 -105.7,206.1 -91.6,206.0 -84.0,205.9 -77.4,205.9 -63.0,205.8 -50.8,205.8 -48.7,205.8 -46.5,205.7 -34.3,205.7 -31.1,205.7 -9.5,205.7 22.2,205.7 30.6,205.5 37.0,205.3 44.1,205.2 46.8,205.2 59.3,205.2 65.7,205.1 79.2,205.0 94.8,205.0"/><polyline points="145.1,190.1 142.4,190.1 117.7,190.3 112.0,190.4 96.9,190.5 94.8,190.5"/><polyline points="456.4,215.8 451.3,215.7"/><polyline points="482.8,216.7 478.7,215.9 456.4,215.8"/><polyline points="404.5,217.2 407.9,218.1 423.2,218.1 426.6,219.0 428.1,219.0 429.2,219.0 432.9,218.3 444.0,218.0 447.5,218.0"/><polyline points="361.3,217.0 364.8,217.0 371.1,216.9"/><polyline points="349.3,217.0 357.5,217.0 361.3,217.0"/><polyline points="421.9,104.0 422.3,122.9 422.3,125.9"/><polyline points="65.6,90.7 65.5,88.0 65.5,86.5 65.4,83.2 64.9,81.6 64.6,79.6 64.7,77.8 64.7,71.3 64.8,54.7 64.8,50.9 64.8,50.7 64.8,37.9 64.8,33.1"/><polyline points="64.8,33.1 64.8,24.2 64.7,8.0 64.6,-1.8 64.5,-17.5 64.5,-24.5"/><polyline points="195.1,537.7 192.5,537.7 189.4,537.8 186.5,537.8 181.0,544.3 195.4,544.0 196.5,543.5 197.2,542.8 197.9,541.7 198.2,540.6 197.8,539.6 197.2,538.7 196.3,538.0 195.1,537.7"/><polyline points="181.0,544.3 174.6,544.3 171.9,544.3 152.8,544.5 151.0,544.9 149.0,545.4"/><polyline points="181.0,544.3 181.0,563.7 181.0,571.6"/><polyline points="192.5,537.7 192.3,516.6 192.3,515.1 191.9,514.1 190.5,510.5"/><polyline points="190.5,510.5 189.4,514.1 189.2,515.1 189.2,516.6 189.4,537.8"/><polyline points="278.3,576.5 278.3,573.3 278.2,561.2 278.1,548.1 278.1,545.8"/><polyline points="278.4,593.8 278.4,588.6 278.4,587.9 278.4,578.6 278.3,576.5"/><polyline points="278.4,593.8 283.6,593.8 283.7,598.8 278.5,598.8 278.4,593.8"/><polyline points="190.0,442.8 177.2,442.9 149.9,443.0 146.4,443.0"/><polyline points="360.6,98.8 360.4,92.1 360.4,89.2"/><polyline points="406.7,507.0 406.7,509.9"/><polyline points="447.5,215.6 444.0,215.5 432.9,215.7 428.6,214.7 428.1,214.6 427.4,214.6 423.1,215.6 407.9,216.0 404.5,217.2"/><polyline points="146.6,488.2 143.3,488.3 126.2,488.4 121.6,488.4 116.3,488.6 109.0,488.6 99.5,488.7 95.9,488.7"/><polyline points="8.7,169.6 8.7,165.5"/><polyline points="472.4,478.0 475.2,478.9 477.2,479.3"/><polyline points="449.2,463.4 451.4,463.3 453.4,463.5 454.4,463.7 455.3,463.9 456.7,464.7 458.6,465.6 460.7,468.0 463.0,470.8 464.8,472.8 466.6,474.6 468.4,476.0 470.4,477.2 472.4,478.0"/><polyline points="7.8,248.7 7.9,260.2 7.9,264.6"/><polyline points="321.3,2.6 317.6,2.2 315.0,2.2 310.2,2.3 306.1,2.3 291.8,2.3 278.1,2.4 263.5,2.3 249.7,2.4 235.5,2.5 221.9,2.4 207.6,2.3"/><polyline points="488.8,1.5 488.8,-0.7 488.7,-12.5 488.6,-26.9"/><polyline points="449.5,575.4 449.5,578.3 449.5,579.6 449.7,581.1"/><polyline points="449.5,575.4 454.4,575.3 460.2,575.0 464.5,574.7 467.2,574.5 471.5,573.0 476.1,571.5 477.5,571.2 478.5,570.9 483.1,569.9 489.8,569.4 493.4,569.3 519.1,568.6"/><polyline points="245.2,374.4 264.3,374.3 272.2,374.2 275.7,374.2"/><polyline points="147.2,573.2 138.4,566.3 126.0,556.5 117.1,550.1 114.4,548.8 113.4,548.6 110.6,548.1 105.6,548.0 99.1,547.8 95.1,548.1"/><polyline points="145.4,247.7 119.5,247.9 112.6,247.9 104.9,248.0 101.2,248.0 98.1,248.0 95.1,248.0"/><polyline points="145.5,218.8 148.1,218.8 158.0,218.7 159.1,218.7 161.3,218.7 164.3,218.7 170.6,218.6 176.1,218.6 182.3,218.6 185.7,218.6"/><polyline points="407.0,486.2 402.6,486.2 394.8,486.1 393.8,486.1 390.8,486.1"/><polyline points="526.4,323.1 522.3,319.6 519.8,318.0 518.3,317.5 516.8,317.2 514.2,317.1 508.1,317.1"/><polyline points="52.0,375.4 52.0,379.5 52.2,417.3 52.2,420.5"/><polyline points="51.9,350.0 51.9,360.6 52.0,372.4 52.0,375.4"/></g><g fill="none" stroke="#97a0ab" stroke-width="1.8" stroke-opacity="0.75" stroke-linecap="round"><polyline points="466.8,289.9 466.6,293.1 466.5,294.5 466.3,297.2 465.7,301.3 464.6,313.1 464.6,313.7 464.5,317.5"/><polyline points="525.1,88.3 520.8,88.3 508.8,88.4 489.3,88.5 486.5,88.5 471.3,88.6 467.3,88.6 446.8,88.7"/><polyline points="446.9,125.8 450.9,125.7 454.7,125.7 466.9,125.6 470.7,125.6 476.3,125.6 490.4,125.4"/><polyline points="448.6,418.3 445.7,418.3 445.4,418.3 409.7,418.5 406.1,418.6 402.1,418.6 394.2,418.6 366.6,418.8 362.4,418.8"/><polyline points="514.6,124.8 511.1,132.7"/><polyline points="95.3,291.9 95.3,296.0 95.4,306.1 95.4,315.7 95.5,319.8"/><polyline points="448.0,317.8 448.0,313.6 447.9,300.8 447.9,293.0 447.9,290.0"/><polyline points="447.7,262.1 444.3,262.2 422.9,262.3 417.6,262.3 408.7,262.4 404.8,262.4"/><polyline points="446.8,88.7 439.6,88.8 403.8,89.0"/><polyline points="95.1,548.1 93.4,548.1 79.5,548.2 59.6,548.3 52.3,548.4 37.8,548.5 22.1,548.7 -3.3,549.0 -7.1,549.1 -20.3,549.1 -25.0,549.1 -27.1,549.5 -29.6,550.1 -32.5,550.6 -35.9,550.7 -39.6,550.7 -76.1,550.9 -77.5,550.9 -79.7,550.9 -104.4,551.1 -109.2,551.2 -111.1,551.2 -129.2,551.3 -133.1,551.3"/><polyline points="448.0,317.8 451.9,317.8 464.5,317.5"/><polyline points="232.2,291.2 232.2,287.4 232.1,276.8 232.1,266.6 232.1,263.3"/><polyline points="232.2,291.2 232.2,294.9 232.3,305.1 232.4,315.7 232.4,319.0 232.4,321.6 232.4,322.7 232.4,332.7 232.5,343.0 232.5,346.5"/><polyline points="447.9,290.0 447.8,285.8 447.7,265.8 447.7,262.1"/><polyline points="406.7,509.9 410.0,510.1 422.6,510.7 435.2,510.4 438.7,510.3 444.8,510.1 446.0,510.1 449.6,508.6"/><polyline points="470.3,262.0 466.4,262.0 451.9,262.1 447.7,262.1"/><polyline points="145.6,291.7 145.6,288.4 145.5,277.1 145.4,267.7 145.4,263.8"/><polyline points="146.4,443.0 146.4,432.9 146.3,424.0 146.3,420.0"/><polyline points="146.7,510.8 146.7,507.4 146.6,488.2"/><polyline points="146.5,462.9 146.4,445.0"/><polyline points="135.8,551.1 140.9,546.3 141.3,545.9 142.7,544.3 144.3,541.4 145.6,538.3 146.5,535.2 146.9,532.9 147.5,529.0"/><polyline points="95.2,550.6 95.9,555.6 96.9,559.1 97.4,561.8 97.7,563.8 98.3,565.6 98.4,565.9 99.5,567.7 100.7,569.0 102.0,570.1 103.4,570.7 106.0,571.4 108.7,571.2 112.5,570.3"/><polyline points="95.5,463.6 95.5,465.3 95.6,469.6 95.8,479.4 95.8,481.4 95.8,485.6 95.9,488.7 95.7,507.4 95.6,510.8"/><polyline points="96.0,420.3 96.0,424.3 95.6,443.3 95.5,447.2"/><polyline points="4.9,292.7 3.0,292.7 -12.8,292.8 -17.6,292.8 -25.1,292.9 -44.6,293.0 -48.2,293.0"/><polyline points="8.1,295.6 9.1,295.4 10.0,294.9 10.7,294.1 11.1,293.2 11.2,292.4"/><polyline points="121.9,32.2 121.9,25.7 122.0,20.0 122.1,11.3 122.2,0.5 122.2,-5.3 122.3,-11.3 121.5,-16.5 119.7,-20.9 117.2,-24.8"/><polyline points="363.8,509.3 363.7,505.5 363.4,492.0 362.8,467.8 362.7,464.1"/><polyline points="324.2,474.5 324.2,487.1 324.3,492.1 324.4,505.6 324.4,509.5"/><polyline points="362.7,464.1 366.8,464.0 380.7,464.0 390.4,463.9 395.5,463.9 402.3,463.8 405.9,463.8 409.8,463.8 425.8,463.6 429.1,463.5 429.9,463.5 434.1,463.5"/><polyline points="466.8,289.9 462.3,289.9 461.4,289.9 452.1,290.0 447.9,290.0 444.8,290.0 409.0,290.2 404.9,290.2 401.3,290.3 365.4,290.5 361.7,290.5"/><polyline points="361.9,318.3 365.8,318.3 381.5,318.2 381.9,318.2 382.9,318.2 401.2,318.1 405.1,318.1"/><polyline points="360.9,126.8 364.3,126.8 400.2,126.8 404.0,126.8"/><polyline points="93.8,90.4 93.8,93.2 93.9,95.5 94.0,103.6"/><polyline points="277.8,509.8 281.8,509.8 290.6,509.8 307.2,509.6 307.7,509.6 320.6,509.5 324.4,509.5"/><polyline points="324.4,509.5 327.7,509.5 339.2,509.4 359.7,509.4 363.8,509.3"/><polyline points="449.6,508.6 449.7,505.0 449.7,501.6 449.9,486.2 449.7,476.4 449.6,472.2 449.5,468.6 449.4,467.3 449.2,463.4"/><polyline points="446.8,88.7 446.7,85.8 446.7,73.6 446.6,59.2 446.5,45.1 446.4,30.3 446.4,28.3 446.4,16.4 446.3,4.0 446.3,1.7 446.3,-0.4 446.2,-12.3 446.1,-26.6"/><polyline points="404.8,262.4 401.1,262.4 365.2,262.6 361.6,262.6"/><polyline points="233.3,510.2 229.9,510.2 228.3,510.2"/><polyline points="449.2,463.4 449.1,459.3 449.0,451.5 448.8,444.5 448.8,441.0 448.6,421.6 448.6,418.3"/><polyline points="322.9,290.7 319.2,290.7 278.8,290.9 275.8,290.9 272.0,291.0 260.9,291.0 240.7,291.1 235.8,291.2 232.2,291.2 228.8,291.2 193.2,291.4 190.7,291.4 170.8,291.5 167.9,291.5 149.5,291.6 145.6,291.7"/><polyline points="95.3,291.9 89.8,292.0 78.8,292.0 48.2,292.2 42.7,292.2 38.0,292.3 31.5,292.3 14.0,292.4 13.0,292.5 11.2,292.4"/><polyline points="122.0,562.4 134.1,552.4"/><polyline points="96.0,420.3 91.6,420.3 86.7,420.3 52.2,420.5"/><polyline points="403.8,89.0 384.4,89.1 379.1,89.1 374.8,89.1 372.8,89.2 367.6,89.2 364.2,89.2 360.4,89.2"/><polyline points="146.5,465.2 150.5,465.4 152.0,465.5 166.4,465.2 168.9,465.1 178.4,464.9 188.7,464.7 190.9,464.7 206.8,464.6 216.8,464.2"/><polyline points="-133.4,467.1 -129.5,467.1 -63.8,466.5 -25.9,466.5 52.5,467.2 56.4,466.2"/><polyline points="56.4,466.2 71.2,465.8 79.1,465.7 91.9,465.4 95.5,465.3"/><polyline points="95.5,465.3 99.4,465.3 109.0,465.2 125.9,465.1 132.2,465.2"/><polyline points="232.7,374.4 232.7,378.4 232.8,388.3 232.8,397.2 232.9,409.1 232.9,416.0 232.9,419.5 232.9,423.5 233.0,426.5 233.0,433.3 233.0,436.6 233.0,442.4 233.2,464.8"/><polyline points="146.5,465.2 146.5,462.9"/><polyline points="145.5,218.8 145.4,216.5 145.4,204.8 145.2,192.4 145.1,190.1"/><polyline points="112.5,570.3 115.8,567.6 122.0,562.4"/><polyline points="95.2,550.6 95.1,563.4 95.1,566.5 95.1,569.1 95.2,574.6 95.4,581.3 95.4,586.3 95.4,592.8 95.5,595.5"/><polyline points="95.6,510.8 95.1,514.7 94.9,527.2 94.8,531.5"/><polyline points="361.7,290.5 357.9,290.5 328.1,290.7 326.8,290.7 322.9,290.7"/><polyline points="323.6,419.0 320.6,419.0 298.4,419.2 292.2,419.2 292.0,419.2 279.9,419.3 276.0,419.3 272.5,419.3 250.0,419.4 236.9,419.5 232.9,419.5 229.4,419.5 193.5,419.7 189.9,419.8 186.0,419.8 172.3,419.8 159.1,419.9 150.2,420.0 146.3,420.0"/><polyline points="146.3,420.0 142.8,420.0 138.7,420.0 123.9,420.0 111.8,420.1 102.9,420.1 98.9,420.2 96.0,420.3"/><polyline points="146.3,420.0 146.3,416.4 146.2,397.7 146.1,392.7 146.1,383.2 146.1,379.0 146.0,374.9"/><polyline points="94.5,136.5 94.5,146.7 94.5,149.5 94.6,152.7 94.6,157.2 94.6,161.6 94.6,165.0 94.7,175.0 94.7,176.1 94.7,184.0 94.8,190.5 94.7,197.6 94.8,205.0 94.9,216.2 94.9,219.1"/><polyline points="446.8,88.7 446.8,91.6 446.8,94.4 446.8,103.9 446.9,122.7 446.9,125.8"/><polyline points="151.0,89.7 150.4,84.3 149.1,79.1 147.3,74.1 145.0,69.7 141.4,64.4 137.5,59.9 134.1,56.7 128.6,50.6 126.9,47.9 125.7,45.7 124.0,41.5 121.9,32.2"/><polyline points="150.9,118.4 150.9,116.8"/><polyline points="365.0,689.5 365.0,674.6 365.0,672.8 365.0,660.7 365.0,657.5 364.8,646.3 364.8,644.2 364.6,617.8 364.5,614.3 364.4,601.1 363.9,560.1 364.0,546.3 364.0,545.6 364.0,533.1 364.0,531.9 363.9,526.8 363.9,513.0 363.8,509.3"/><polyline points="324.4,509.5 324.4,513.3 324.2,532.2 324.2,545.7 324.2,560.0 323.7,576.5 323.6,581.9 323.5,599.7"/><polyline points="94.8,531.5 94.8,536.0"/><polyline points="94.8,536.0 95.1,548.1"/><polyline points="525.1,88.3 524.6,85.4 524.0,82.5 522.9,78.5 522.8,76.2 523.4,73.2 524.3,71.0 531.0,58.8"/><polyline points="490.4,125.4 492.6,125.5"/><polyline points="95.5,598.4 98.5,587.7 99.7,584.3 101.5,580.8 104.0,577.5 107.3,574.3 112.5,570.3"/><polyline points="95.5,598.4 95.5,604.4 95.5,607.2 95.6,622.5 95.6,625.0 95.6,635.3 95.7,649.2 95.7,657.1"/><polyline points="548.5,29.7 549.8,27.5 556.7,15.7 564.5,3.2 565.8,1.1 567.0,-1.1 573.9,-13.0 577.7,-19.5 582.7,-27.4 589.5,-39.2 591.4,-41.8 600.0,-56.5 601.2,-58.5 608.1,-69.5 611.7,-75.3 615.6,-81.7 618.0,-85.5 626.6,-99.2 634.8,-114.2 643.7,-128.2 651.3,-140.6 652.7,-142.8 653.9,-144.9 659.9,-155.3 668.0,-168.7 675.4,-181.3 683.5,-194.4 691.3,-207.0 698.1,-218.3 699.0,-219.8 700.4,-222.1 706.7,-232.6 714.5,-245.9 722.4,-258.3 730.3,-271.3 737.9,-284.1 740.8,-289.5 741.8,-291.4"/><polyline points="95.5,461.7 95.5,462.9 95.5,463.6"/><polyline points="145.7,161.2 146.2,158.9 146.3,158.3 147.1,155.8 149.0,150.2 149.9,148.0 150.6,146.3 151.0,143.4 151.3,137.7 151.3,132.3 151.4,131.1 151.0,121.2 150.9,118.4"/><polyline points="233.2,464.8 236.9,464.8 248.0,465.0 271.0,465.0 277.8,465.0 284.0,465.1 293.9,464.8 303.6,464.1"/><polyline points="216.8,464.2 221.6,464.6 229.6,464.7 233.2,464.8"/><polyline points="233.2,464.8 233.2,467.7 233.2,477.0 233.2,491.7 233.2,491.9 233.2,493.3"/><polyline points="64.8,33.1 50.7,33.1 35.9,33.2 21.8,33.3 9.8,33.3 8.8,33.3 0.9,33.4 0.5,33.4 -6.6,33.5 -15.3,33.5 -19.3,33.6 -20.2,33.6 -21.4,33.6 -47.3,33.9"/><polyline points="324.3,464.2 324.3,467.1 324.2,474.5"/><polyline points="145.1,180.3 145.2,176.1 145.2,171.7 145.3,167.9 145.6,163.3 145.7,161.2"/><polyline points="146.6,478.3 146.5,469.2 146.5,465.2"/><polyline points="132.2,465.2 143.1,465.2 146.5,465.2"/><polyline points="94.1,122.8 94.2,126.9 94.4,135.4 94.5,136.5"/><polyline points="94.0,108.0 94.1,118.4 94.1,122.8"/><polyline points="94.0,103.6 94.0,108.0"/><polyline points="95.8,375.2 95.8,379.2 95.9,390.4 95.9,392.8 96.0,417.1 96.0,420.3"/><polyline points="492.6,125.5 501.5,125.1 506.1,125.0 509.7,125.1 512.5,125.1 514.6,124.8"/><polyline points="146.0,374.9 146.0,371.0 145.9,361.3 145.9,351.7 145.9,346.9"/><polyline points="95.6,347.2 95.7,352.1 95.7,360.4 95.8,372.0 95.8,375.2"/><polyline points="447.5,218.0 447.5,215.6"/><polyline points="447.7,262.1 447.7,258.3 447.6,239.7 447.5,220.5 447.5,218.0"/><polyline points="147.5,529.0 147.4,525.4 146.9,514.3 146.7,510.8"/><polyline points="146.7,510.8 143.3,510.8 132.4,510.9 128.6,510.9 99.8,511.0 95.6,510.8"/><polyline points="95.5,595.5 95.5,598.4"/><polyline points="405.1,318.1 408.9,318.0 419.6,318.0 421.7,318.0 423.6,318.0 434.9,317.9 436.1,317.9 437.2,317.9 444.9,317.8 448.0,317.8"/><polyline points="95.5,319.8 95.5,322.5 95.5,323.3 95.5,333.5 95.6,343.8 95.6,347.2"/><polyline points="145.9,346.9 145.9,342.9 145.8,323.1 145.7,321.2 145.7,319.5"/><polyline points="95.1,548.1 95.2,550.6"/><polyline points="514.6,124.8 514.9,124.1 520.8,108.7 523.0,103.9 524.4,100.3 525.1,97.5"/><polyline points="448.6,418.3 448.6,414.7 448.5,398.2 448.4,385.5 448.4,383.9 448.3,377.6 448.3,368.0 448.3,363.4 448.2,354.7 448.2,350.5 448.2,349.2 448.2,345.3 448.2,341.7 448.1,336.5 448.0,321.2 448.0,319.9 448.0,317.8"/><polyline points="232.5,346.5 232.5,350.5 232.6,360.7 232.7,370.8 232.7,374.4"/><polyline points="95.1,248.0 95.1,251.5 95.1,251.8 95.1,260.4 95.2,264.1"/><polyline points="94.9,219.1 94.9,222.5 95.0,227.5 95.0,233.7 95.1,245.4 95.1,248.0"/><polyline points="446.9,125.8 447.0,130.1 447.1,142.2 447.1,149.0 447.2,167.8 447.2,171.5"/><polyline points="145.7,319.5 145.7,316.0 145.7,307.7 145.6,295.3 145.6,291.7"/><polyline points="95.2,264.1 95.2,268.2 95.2,277.8 95.3,280.7 95.3,288.7 95.3,291.9"/><polyline points="362.4,418.8 359.0,418.8 336.6,418.9 327.0,419.0 323.6,419.0"/><polyline points="363.8,509.3 367.0,510.0 399.4,509.9 406.7,509.9"/><polyline points="233.3,510.2 237.4,510.1 267.7,509.9"/><polyline points="482.8,216.7 481.2,222.4 476.4,239.4 472.0,255.8 470.3,262.0 467.8,274.3 466.2,284.9 466.2,285.1 466.3,286.0 466.8,289.9"/><polyline points="150.9,116.8 151.0,104.1 151.0,89.7"/><polyline points="323.5,599.7 323.5,603.3 323.5,605.7 323.9,633.5 323.9,648.3 323.9,662.2 324.3,686.8 324.3,688.6 324.3,689.8"/><polyline points="93.9,32.7 93.9,35.4 93.9,48.2 93.9,54.7 93.8,57.8 93.8,59.9 93.8,75.4 93.8,87.0 93.8,90.4"/><polyline points="145.1,190.1 145.1,187.9 145.1,180.3"/><polyline points="406.7,507.0 399.4,507.0 380.3,507.1 367.0,507.4 363.8,509.3"/><polyline points="449.6,508.6 446.0,506.8 438.9,506.7 427.4,506.9 410.0,507.1 406.7,507.0"/><polyline points="190.5,510.5 170.1,510.6 166.4,510.7 161.7,510.7 155.1,510.8 150.9,510.8 146.7,510.8"/><polyline points="267.7,509.9 273.0,509.9 277.8,509.8"/><polyline points="404.0,126.8 407.6,126.1 408.1,126.0 422.3,125.9 443.3,125.8 446.9,125.8"/><polyline points="511.1,132.7 505.2,148.6 498.4,169.0 497.6,171.2 496.0,176.1 490.2,193.7 488.9,197.6 484.1,212.7 482.8,216.7"/><polyline points="525.1,97.5 525.3,94.0 525.2,91.0 525.1,88.3"/><polyline points="4.0,424.1 -6.9,430.6"/><polyline points="52.2,420.5 50.6,420.5 21.9,420.8 15.0,420.9 10.9,421.1 9.0,421.9 7.2,422.7 4.0,424.1"/><polyline points="121.9,32.2 120.0,32.2 97.1,32.7 93.9,32.7 89.9,32.8 78.7,32.9 78.1,32.9 64.8,33.1"/><polyline points="146.6,488.2 146.6,485.9 146.6,478.3"/><polyline points="228.3,510.2 224.8,510.2 214.7,510.3 205.5,510.4 205.1,510.4 190.5,510.5"/><polyline points="146.4,445.0 146.4,443.0"/><polyline points="447.3,183.6 447.2,175.2 447.2,171.5"/><polyline points="93.7,-5.6 93.7,-2.2 93.7,0.2 93.8,11.6 93.9,30.0 93.9,32.7"/><polyline points="447.5,215.6 447.4,213.2 447.3,194.2 447.3,190.8 447.3,183.6"/><polyline points="531.0,58.8 539.7,44.6 548.5,29.7"/><polyline points="434.1,463.5 445.7,463.4 449.2,463.4"/><polyline points="134.1,552.4 135.8,551.1"/><polyline points="95.5,447.2 95.5,461.7"/><polyline points="8.1,289.3 7.1,289.5 6.2,289.9 5.4,290.7 5.0,291.7 4.9,292.7"/><polyline points="4.9,292.7 5.1,293.6 5.6,294.4 6.3,295.1 7.2,295.4 8.1,295.6"/><polyline points="11.2,292.4 11.0,291.3 10.5,290.5 9.9,289.9 9.0,289.5 8.1,289.3"/><polyline points="145.4,263.8 145.4,260.3 145.4,251.0 145.4,247.7"/><polyline points="145.4,247.7 145.4,245.6 145.4,236.6"/><polyline points="145.4,236.6 145.4,233.4 145.4,221.8 145.5,218.8"/><polyline points="128.5,291.8 101.9,291.9 99.0,291.9 95.3,291.9"/><polyline points="145.6,291.7 142.2,291.7 136.5,291.7 128.5,291.8"/><polyline points="233.2,493.3 233.2,494.6 233.2,495.1 233.3,506.5 233.3,510.2"/><polyline points="360.4,89.2 355.4,89.2"/></g><g fill="none" stroke="#b6bdc6" stroke-width="3.0" stroke-opacity="0.95" stroke-linecap="round"><polyline points="65.6,90.7 58.6,92.4 53.9,93.8 49.4,95.7 45.0,97.9 40.2,100.6 34.4,103.6 28.7,105.7 24.7,106.6 19.5,107.2 15.0,107.0 10.0,106.7 4.2,106.3 -15.9,105.2"/><polyline points="95.6,443.3 92.4,444.1 89.0,445.0 81.8,445.4 59.6,447.3 35.6,448.6 22.4,449.2 1.9,450.9"/><polyline points="11.4,462.1 30.5,463.8 41.8,464.7 52.3,465.2 56.4,466.2"/><polyline points="-40.3,106.9 15.0,119.4 29.1,121.7 38.6,122.9 45.8,123.5 52.5,124.0 59.6,124.7"/><polyline points="149.8,456.8 166.8,458.5 176.9,460.3 195.2,461.6 216.8,464.2"/><polyline points="323.0,318.2 323.0,320.0 323.1,322.1 323.2,329.0 323.2,332.0 323.3,339.7 323.3,342.4 323.3,346.0"/><polyline points="93.8,90.4 89.9,90.4 83.2,90.4"/><polyline points="361.7,290.5 361.7,286.7 361.7,283.8 361.7,276.1 361.6,265.9 361.6,262.6"/><polyline points="362.7,464.1 362.7,460.4 362.7,456.8 362.6,447.1 362.6,441.6 362.5,422.5 362.4,418.8"/><polyline points="216.2,89.6 214.2,90.2 209.2,91.5 202.1,93.7 197.4,94.5 192.8,95.0 187.8,95.3 181.8,95.2 171.0,95.0 163.7,94.7"/><polyline points="224.4,450.9 195.1,451.1 150.2,451.4 142.8,451.4 99.4,451.6 91.8,451.6 39.2,452.2 27.3,452.1 1.9,450.9"/><polyline points="310.9,456.5 307.6,456.4 304.9,455.9 294.9,454.6 276.0,452.3 270.4,451.8 259.2,451.1 241.8,450.8"/><polyline points="241.8,450.8 224.4,450.9"/><polyline points="224.3,456.0 241.6,455.8"/><polyline points="241.6,455.8 252.5,455.9 260.9,456.6 269.2,457.9"/><polyline points="78.6,114.9 74.7,115.5 70.3,115.8 65.2,115.9 60.1,115.8 54.3,115.5 48.3,115.0 40.8,114.0 31.5,112.6 9.8,109.5 -15.9,105.2 -25.7,104.1 -65.9,98.4"/><polyline points="150.9,116.8 149.8,112.4 148.8,108.5 147.8,105.8 146.6,103.4 145.3,101.4 143.9,99.8 142.0,98.1 139.4,96.3 136.6,95.2 133.9,94.2 131.3,93.7 128.2,93.3 124.9,93.5 122.0,94.4 118.4,95.9 115.3,97.6 112.3,99.4"/><polyline points="163.7,94.7 157.0,94.4 154.5,94.4 148.1,94.5 144.5,94.7 140.1,95.2 135.0,96.3 128.1,98.3 122.6,100.5 114.1,103.8 104.6,107.5 92.7,111.4"/><polyline points="79.4,118.9 88.8,116.9 97.7,113.9 104.1,111.4 114.3,107.5"/><polyline points="164.0,99.0 169.4,100.3 175.6,102.5 180.2,104.5 189.7,109.3"/><polyline points="321.7,126.9 321.7,131.0 321.8,139.8 321.8,140.8 321.9,149.9 321.9,154.0 322.1,168.8 322.1,172.6"/><polyline points="275.7,126.9 278.8,126.9 299.5,126.9 303.6,126.9 308.1,126.9"/><polyline points="51.7,320.0 78.6,319.9 90.8,319.8 95.5,319.8"/><polyline points="323.7,441.8 323.8,445.6"/><polyline points="303.6,464.1 320.4,464.2 324.3,464.2"/><polyline points="322.7,262.8 318.6,262.8 278.8,263.1 275.1,263.1 271.7,263.1 266.1,263.1 259.9,263.2 256.1,263.2 235.4,263.3 232.1,263.3 228.4,263.3 213.2,263.4 206.5,263.5 200.8,263.5 195.8,263.5 195.1,263.5 187.6,263.6 182.7,263.6 170.7,263.7 166.0,263.7 149.0,263.8 145.4,263.8"/><polyline points="355.4,89.2 347.8,89.3 335.8,89.4 334.0,89.4"/><polyline points="230.3,89.9 227.2,89.8 222.4,89.7 216.2,89.6"/><polyline points="252.5,127.6 258.4,127.5 263.6,127.4 267.5,127.2 270.5,127.1 275.7,126.9"/><polyline points="324.3,464.2 327.8,464.2 335.0,464.2 338.6,464.2"/><polyline points="-6.1,319.5 4.5,319.4 8.1,319.3"/><polyline points="94.1,122.8 97.4,122.1 99.1,121.7 101.9,121.1"/><polyline points="65.2,124.5 76.4,124.6 79.5,124.5 82.0,124.5 85.3,124.3 89.2,123.9 90.2,123.7 94.1,122.8"/><polyline points="360.8,113.3 360.6,104.4 360.6,98.8"/><polyline points="322.6,217.3 322.5,221.3 322.6,240.2 322.7,259.0 322.7,262.8"/><polyline points="322.7,262.8 322.8,266.4 322.8,276.3 322.9,286.9 322.9,290.7"/><polyline points="122.4,90.3 109.2,90.3 107.1,90.4"/><polyline points="216.2,89.6 213.3,89.4 208.0,89.1 195.6,89.7 185.0,90.1 167.8,89.9 151.0,89.7"/><polyline points="1.9,450.9 -76.9,449.2"/><polyline points="92.7,111.4 88.2,112.8 85.5,113.4 78.6,114.9"/><polyline points="112.3,99.4 102.6,105.8 92.7,111.4"/><polyline points="-40.3,106.9 -7.3,110.8 12.2,113.7 25.8,115.7 46.2,118.6 53.5,119.3 60.4,119.5 65.7,119.6 70.8,119.6 75.0,119.4 79.4,118.9"/><polyline points="-31.3,457.3 -20.6,456.5 19.8,456.9 92.1,456.5 98.7,456.6 149.8,456.8"/><polyline points="179.7,456.4 224.3,456.0"/><polyline points="269.2,457.9 274.7,459.1 280.3,460.5 286.0,461.5 291.8,462.3 294.0,462.6"/><polyline points="114.3,107.5 120.5,104.9 128.5,102.0 134.1,100.3 139.0,99.1 143.6,98.3 146.9,97.9 151.0,97.8 155.6,97.9 159.5,98.3 164.0,99.0"/><polyline points="189.7,109.3 195.5,112.4 201.0,115.4 206.3,118.3 210.7,120.6 214.9,122.6 219.0,124.2 222.7,125.3 226.8,126.2 230.3,126.6 235.7,126.9 244.8,127.7"/><polyline points="126.6,118.4 132.3,118.4 146.6,118.4 150.9,118.4 154.2,118.4 169.1,118.4 184.8,118.4"/><polyline points="233.0,442.4 229.6,442.7 225.3,443.0 224.1,443.1 214.6,444.3 204.7,445.6 193.4,447.4 150.2,451.4"/><polyline points="-34.7,125.7 -20.5,125.6 8.4,125.5 43.1,125.7 59.6,124.7"/><polyline points="184.8,118.4 188.3,118.2 194.4,118.2 197.9,118.5 200.5,119.0 202.5,119.5 204.8,120.4 206.8,121.5 208.1,122.1 212.6,124.4 216.1,125.9 218.0,126.7 219.7,127.3 221.7,127.9 225.7,128.6 227.5,128.7"/><polyline points="65.6,90.7 36.7,91.1"/><polyline points="107.1,90.4 97.7,90.4 93.8,90.4"/><polyline points="334.0,89.4 328.8,88.4 326.9,87.5 324.8,85.7 323.5,82.9 322.7,80.5 321.4,76.1"/><polyline points="334.0,89.4 321.3,89.6"/><polyline points="321.4,76.1 321.3,78.0 321.3,89.6"/><polyline points="274.9,90.2 264.0,89.9 258.8,89.9 253.6,90.0"/><polyline points="321.3,8.2 321.1,17.0"/><polyline points="323.6,419.0 323.6,422.2 323.7,432.2"/><polyline points="83.2,90.4 79.7,90.5 65.6,90.7"/><polyline points="323.7,432.2 323.7,441.8"/><polyline points="338.6,464.2 346.5,464.1 359.4,464.1 362.7,464.1"/><polyline points="324.2,462.7 323.6,461.7 322.5,460.2 321.1,459.0 320.7,458.7 319.1,457.7 316.4,457.1 313.4,457.0 310.9,456.5"/><polyline points="-31.3,457.3 -14.2,460.0 3.2,461.3 11.4,462.1"/><polyline points="145.7,319.5 149.2,319.5 177.0,319.3 185.9,319.3 189.3,319.2 193.0,319.2 201.2,319.2 214.7,319.1 215.7,319.1 223.7,319.1 228.6,319.0 232.4,319.0 236.2,319.0 239.5,318.9 239.9,318.9 240.2,318.9 248.4,318.8 252.7,318.7 257.5,318.7 260.0,318.7 271.9,318.6 275.9,318.6"/><polyline points="321.1,17.0 321.0,28.5 321.0,31.0 321.0,45.8 321.0,52.0 321.0,54.5 321.1,59.9 321.2,65.1 321.3,74.2 321.4,76.1"/><polyline points="321.3,89.6 306.8,89.9 306.3,89.9 301.1,90.0 292.2,90.1 285.0,90.1 277.1,90.2 274.9,90.2"/><polyline points="322.1,172.6 322.1,176.2 322.2,183.6 322.2,185.9 322.3,195.1"/><polyline points="7.9,264.6 4.2,264.6 -3.1,264.6 -20.7,264.7 -36.3,264.8 -42.7,264.8 -45.9,264.9 -48.3,264.9 -50.6,264.9 -80.8,265.0 -88.4,265.1 -89.7,265.1 -97.4,265.5"/><polyline points="361.9,318.3 361.9,314.4 361.8,304.4 361.8,294.1 361.7,290.5"/><polyline points="362.0,345.7 362.0,342.2 361.9,322.1 361.9,319.6 361.9,318.3"/><polyline points="323.3,346.0 323.3,349.9 323.3,370.4 323.3,373.9"/><polyline points="323.3,373.9 323.4,377.7 323.4,389.5 323.5,396.3 323.6,416.2 323.6,419.0"/><polyline points="361.1,171.9 361.1,168.7 361.0,153.8 361.0,149.4 360.9,140.6 360.9,130.7 360.9,126.8 360.8,123.2 360.8,113.3"/><polyline points="362.4,418.8 362.4,415.1 362.4,401.4 362.3,396.1 362.3,382.6 362.2,377.5 362.2,373.7"/><polyline points="8.1,319.3 51.7,320.0"/><polyline points="59.6,124.7 65.2,124.5"/><polyline points="361.6,262.6 357.7,262.6 338.2,262.7 326.5,262.8 322.7,262.8"/><polyline points="275.9,318.6 278.9,318.6 304.4,318.3 309.2,318.3 319.4,318.2 323.0,318.2"/><polyline points="95.5,319.8 98.3,319.7 134.2,319.6 142.6,319.5 145.7,319.5"/><polyline points="145.4,263.8 142.0,263.8 98.1,264.1 95.2,264.1"/><polyline points="151.0,89.7 135.8,90.0 122.4,90.3"/><polyline points="321.3,89.6 321.5,104.6 321.6,114.7 321.7,126.9"/><polyline points="321.7,126.9 325.2,126.9 345.0,126.9 357.0,126.8 360.9,126.8"/><polyline points="361.6,262.6 361.6,258.9 361.5,240.1 361.4,220.8 361.3,217.0"/><polyline points="361.3,217.0 361.3,213.7 361.2,194.9"/><polyline points="362.2,373.7 362.2,370.3 362.1,349.1 362.0,345.7"/><polyline points="322.3,195.1 322.5,213.7 322.6,217.3"/><polyline points="361.2,194.9 361.1,175.5 361.1,171.9"/><polyline points="324.2,462.7 324.3,464.2"/><polyline points="149.8,456.8 155.4,456.4 179.7,456.4"/><polyline points="101.9,121.1 103.6,120.7 107.8,119.8"/><polyline points="323.7,441.8 321.2,450.3 320.7,451.1 320.0,452.5 318.5,454.0 315.8,455.2 313.2,456.0 310.9,456.5"/><polyline points="323.8,445.6 324.1,456.7 324.2,462.7"/><polyline points="233.0,436.6 230.4,439.7 229.7,440.3 227.7,441.7 225.3,443.0"/><polyline points="360.6,98.8 359.3,94.6 358.2,92.2 356.7,90.2 355.4,89.2"/><polyline points="308.1,126.9 314.0,126.9 321.7,126.9"/><polyline points="244.8,127.7 252.5,127.6"/><polyline points="323.0,318.2 326.8,318.2 358.2,318.3 361.9,318.3"/><polyline points="322.9,290.7 322.9,294.4 323.0,304.5 323.0,314.6 323.0,318.2"/><polyline points="294.0,462.6 303.6,464.1"/><polyline points="227.5,128.7 229.4,128.8 237.0,128.7 244.8,127.7"/><polyline points="107.8,119.8 115.1,118.7 118.2,118.6 123.3,118.5 126.6,118.4"/><polyline points="95.2,264.1 90.6,264.1 84.3,264.1 79.4,264.2 57.7,264.3 54.2,264.3 53.4,264.3 51.8,264.3 39.7,264.4"/><polyline points="39.7,264.4 7.9,264.6"/><polyline points="253.6,90.0 250.2,90.0 236.0,90.0"/><polyline points="236.0,90.0 230.3,89.9"/><polyline points="321.3,-13.8 321.3,-11.1 321.3,-7.6 321.3,1.0 321.3,2.6 321.3,5.0 321.3,8.2"/><polyline points="36.7,91.1 33.2,91.2"/><polyline points="33.2,91.2 32.0,91.2 8.0,91.5 -6.8,91.7 -9.3,91.7 -9.6,91.7 -10.2,91.7 -12.2,91.7 -12.7,91.7 -12.8,91.7 -16.0,91.8 -60.0,92.0 -60.5,92.0 -73.8,92.2 -91.7,92.3"/></g></svg>